<svg display="none" xmlns="http://www.w3.org/2000/svg" height="38">
    <symbol id="tricolor">
        <g>
            <path d="M9.18478 23.0983L16.6102 15.9595L0 0H15.0646L31.573 15.8623L24.0404 23.0983H9.18478Z" fill="#1E3C96"/>
            <path d="M39.3364 37.7946L24.0405 23.0983L39.1052 23.0986L54.3998 37.7946H39.3364Z" fill="#C8140A"/>
            <path d="M141.866 11.9582C141.866 10.8529 141.235 10.3342 140.159 10.3342H137.916V13.5466H140.213C141.253 13.5466 141.866 13.0206 141.866 11.9582ZM134.781 7.34387H140.141C142.882 7.34387 145 9.14001 145 11.9578C145 14.8098 142.856 16.5363 140.105 16.5363H137.916V19.9418H134.781V7.34387ZM132.467 13.6202C132.467 17.4037 129.933 20.0489 126.152 20.0489C122.372 20.0489 119.795 17.4329 119.795 13.6431C119.795 9.85343 122.316 7.23703 126.152 7.23703C129.989 7.23703 132.467 9.8365 132.467 13.6202ZM129.332 13.6202C129.332 11.639 128.197 10.2271 126.152 10.2271C124.107 10.2271 122.93 11.6539 122.93 13.6431C122.93 15.6327 124.086 17.0592 126.152 17.0592C128.219 17.0589 129.332 15.6012 129.332 13.6202ZM68.7481 15.2442L73.4723 7.34354H76.7148V19.9418H73.6919V12.0212L68.9678 19.9424H65.7253V7.34387H68.7478V15.2442H68.7481ZM60.4626 11.9582C60.4626 10.8529 59.8318 10.3342 58.7557 10.3342H56.5123V13.5466H58.8095C59.8497 13.5466 60.4626 13.0206 60.4626 11.9582ZM53.3779 7.34387H58.7378C61.4793 7.34387 63.5976 9.14001 63.5976 11.9578C63.5976 14.8098 61.4534 16.5363 58.7023 16.5363H56.5129V19.9418H53.3782V7.34387H53.3779ZM83.2414 11.7836H83.6167L87.2637 7.34354H91.298L86.2098 13.1968L91.7127 19.9418H87.5763L83.5523 14.6519H83.241V19.9418H80.107V7.34387H83.2414V11.7836ZM104.084 13.6202C104.084 9.8365 101.606 7.23669 97.7695 7.23669C93.9329 7.23669 91.4121 9.85343 91.4121 13.6428C91.4121 17.4325 93.989 20.0486 97.7695 20.0486C101.55 20.0489 104.084 17.4037 104.084 13.6202ZM100.949 13.6202C100.949 15.6012 99.836 17.0589 97.7691 17.0589C95.7025 17.0589 94.5468 15.6324 94.5468 13.6428C94.5468 11.6536 95.7241 10.2267 97.7691 10.2267C99.8145 10.2271 100.949 11.639 100.949 13.6202ZM51.2854 7.34387V10.3342H47.6586V19.9424H44.5239V10.3339H40.8965V7.34354H51.2854V7.34387ZM110.901 10.3339C110.834 11.2053 110.762 12.0856 110.666 12.9629C110.565 13.8827 110.439 14.7929 110.266 15.6752C109.769 18.2219 108.433 19.8386 105.904 19.9663C105.647 19.9792 105.396 19.9736 105.139 19.9623V16.9421C106.54 16.9789 106.939 16.4497 107.197 15.1314C107.367 14.2676 107.515 13.1235 107.637 11.9386C107.795 10.4112 107.91 8.87721 107.996 7.3442H117.391V19.9427H114.256V10.3339H110.901Z" fill="#1E3C96"/>
        </g>
    </symbol>

    <symbol id="iflex">
        <g>
            <path d="M48.929 11.6113C52.6204 11.6113 54.4997 13.4235 54.4997 16.9808V23.6925C54.4997 24.6322 54.2984 24.8335 53.5601 25.1691C52.4862 25.639 50.9425 25.8403 48.8618 25.8403C46.6469 25.8403 45.1704 25.5047 44.2978 24.7664C43.4924 24.0952 43.0226 23.0214 43.0226 21.6119C43.0226 18.5245 44.7005 17.4506 48.929 17.4506C49.1303 17.4506 49.9357 17.5177 51.4123 17.5848V16.8465C51.4123 15.1686 50.674 14.296 48.7947 14.296C47.5195 14.296 46.5798 14.6988 46.0429 15.5713C45.6402 16.1082 45.5059 16.1753 44.9019 15.974L43.9622 15.437C43.3582 15.1686 43.2239 14.7659 43.4924 14.296C44.4321 12.4839 46.2442 11.6113 48.929 11.6113ZM51.4794 20.0682C49.6672 20.0011 48.7276 19.9339 48.6605 19.9339C46.7812 19.9339 46.1771 20.4709 46.1771 21.6119C46.1771 22.7529 46.7141 23.357 48.5934 23.357C49.7344 23.357 50.5398 23.2898 51.211 23.1556C51.4123 23.0885 51.4794 22.9542 51.4794 22.82V20.0682Z" fill="#5E6065"/>
            <path d="M59.4664 11.947C60.0705 11.947 60.2718 12.1483 60.2718 12.7524V17.7191C60.2718 18.9273 60.0705 20.2025 59.7349 21.5448H59.802C60.1376 20.7394 60.6074 19.7998 61.2786 18.9273L65.9097 12.4168C66.1111 12.1483 66.3795 12.0141 66.7151 12.0141H68.1246C68.7287 12.0141 68.93 12.2155 68.93 12.8195V24.6994C68.93 25.3034 68.7287 25.5048 68.1246 25.5048H66.7151C66.1111 25.5048 65.9097 25.3034 65.9097 24.6994V19.7998C65.9097 18.5917 66.1111 17.3164 66.5138 15.9741H66.4467C66.1782 16.6452 65.6412 17.5178 64.9701 18.5917L60.406 25.1021C60.2047 25.3706 59.9362 25.5048 59.6006 25.5048H58.1912C57.5871 25.5048 57.3857 25.3034 57.3857 24.6994V12.7524C57.3857 12.1483 57.5871 11.947 58.1912 11.947H59.4664ZM63.225 10.2019C61.2786 10.2019 59.7349 9.19516 59.1979 7.51722C59.0637 7.18163 59.1979 6.91316 59.5335 6.77892L60.5403 6.37621C60.943 6.24198 61.2115 6.37621 61.3457 6.64469C61.6142 7.58434 62.2853 7.98704 63.1579 7.98704C64.0975 7.98704 64.7016 7.51722 64.9701 6.64469C65.1043 6.37621 65.3056 6.24198 65.6412 6.3091L66.8494 6.77892C67.2521 6.98028 67.3192 7.11451 67.1849 7.51722C66.648 9.26228 65.1714 10.2019 63.225 10.2019Z" fill="#5E6065"/>
            <path d="M81.9509 6.30908C82.6221 6.30908 82.8905 6.51044 82.8905 7.18161V8.52397H84.2329C88.7969 8.52397 91.2803 10.9402 91.2803 15.1686V17.1822C91.2803 21.3435 88.7969 23.8268 84.2329 23.8268H82.8905V25.1692C82.8905 25.8404 82.6221 26.0417 81.9509 26.0417H80.4743C79.8031 26.0417 79.6018 25.8404 79.6018 25.1692V23.8268H78.2594C73.6954 23.8268 71.212 21.4106 71.212 17.1822V15.1686C71.212 11.0073 73.6954 8.52397 78.2594 8.52397H79.6018V7.18161C79.6018 6.51044 79.8031 6.30908 80.4743 6.30908H81.9509ZM78.2594 11.4772C75.776 11.4772 74.5008 12.6182 74.5008 15.0344V17.3164C74.5008 19.6655 75.776 20.8737 78.2594 20.8737H79.6018V11.4772H78.2594ZM87.9915 15.0344C87.9915 12.6853 86.7163 11.4772 84.2329 11.4772H82.8905V20.8065H84.2329C86.7163 20.8065 87.9915 19.6655 87.9915 17.2493V15.0344Z" fill="#5E6065"/>
            <path d="M103.898 11.947C104.502 11.947 104.704 12.1484 104.704 12.7524V24.6323C104.704 25.2364 104.502 25.4377 103.898 25.4377H102.489C101.885 25.4377 101.684 25.2364 101.684 24.6323V14.766H97.7236V16.8466C97.7236 20.0012 97.3209 22.2161 96.4483 23.4913C95.6429 24.7665 94.9718 25.3035 93.8307 25.8404C93.3609 26.0418 93.0925 25.9075 92.824 25.4377L92.1528 24.0954C91.9514 23.6926 92.0186 23.4242 92.4884 23.1557C93.1596 22.8201 93.428 22.6188 93.965 21.7462C94.5019 20.9408 94.7704 19.1957 94.7704 16.7795V12.7524C94.7704 12.1484 94.9718 11.947 95.5758 11.947H103.898Z" fill="#5E6065"/>
            <path d="M106.919 17.1822C106.919 13.5578 108.999 11.5443 112.959 11.5443C116.919 11.5443 119 13.7592 119 16.9137V18.5246C119 19.2629 118.597 19.6656 117.859 19.6656H110.006V20.6052C110.006 22.2832 111.08 23.2228 112.959 23.2228C114.436 23.2228 115.443 22.753 116.047 21.8133C116.449 21.2093 116.718 21.1422 117.389 21.4778L118.329 21.9476C118.933 22.2161 119 22.6188 118.664 23.2228C117.658 24.9008 115.778 25.7062 113.026 25.7062C108.999 25.7062 107.053 23.5584 107.053 20.1354V17.1822H106.919ZM115.98 16.7795C115.98 15.1016 114.973 14.0948 112.959 14.0948C111.013 14.0948 109.939 15.0344 109.939 16.7795V17.3836H115.98V16.7795Z" fill="#5E6065"/>
            <path d="M132.961 24.4981C133.296 25.1692 133.162 25.4377 132.424 25.4377H131.148C130.209 25.4377 130.074 25.3035 129.739 24.6994L128.128 21.2093C127.725 20.2696 127.121 19.934 126.047 19.934H124.437V24.5652C124.437 25.1692 124.235 25.3706 123.564 25.3706H122.222C121.55 25.3706 121.416 25.1692 121.416 24.5652V12.7524C121.416 12.1484 121.618 11.947 122.222 11.947H123.564C124.235 11.947 124.437 12.1484 124.437 12.7524V17.1822H125.645H125.846L129.336 12.5511C129.739 12.0141 129.94 11.947 130.88 11.947H132.155C132.961 11.947 133.162 12.2826 132.692 12.8867L128.799 17.7863C129.47 18.1219 130.142 18.8602 130.679 19.934L132.961 24.4981Z" fill="#5E6065"/>
            <path d="M134.37 16.9136C134.37 13.4906 136.383 11.6113 140.343 11.6113C143.297 11.6113 145.243 12.9537 145.914 15.0343C146.115 15.7055 145.981 15.974 145.31 16.1753L144.169 16.5109C143.565 16.7123 143.229 16.578 143.028 15.974C142.558 14.833 141.619 14.2289 140.209 14.2289C138.33 14.2289 137.39 15.1015 137.39 16.7794V20.6051C137.39 22.2159 138.397 23.1556 140.209 23.1556C141.619 23.1556 142.625 22.5515 143.028 21.3434C143.229 20.7394 143.565 20.6051 144.169 20.8065L145.31 21.1421C145.914 21.3434 146.115 21.7461 145.847 22.2831C144.907 24.6322 143.028 25.7732 140.075 25.7732C136.249 25.7732 134.303 23.8268 134.303 20.4709V16.9136H134.37Z" fill="#5E6065"/>
            <path d="M14.2961 0H4.56401C2.08065 0 0 2.01354 0 4.56401V14.2961C0 14.7659 0.335589 15.1015 0.805414 15.1015H14.9002C14.9673 15.1015 15.0344 15.0344 15.0344 14.9673V0.872532C15.1015 0.402707 14.7659 0 14.2961 0ZM13.5578 1.54371V13.6249H1.54371V4.56401C1.54371 2.88607 2.88607 1.54371 4.56401 1.54371H13.5578Z" fill="#F7A823"/>
            <path d="M14.9002 17.115H0.805414C0.335589 17.115 0 17.4506 0 17.9204V27.6525C0 30.1359 2.01354 32.1494 4.56401 32.1494H14.9002C14.9673 32.1494 15.0344 32.0823 15.0344 32.0152V17.3163C15.1015 17.1821 15.0344 17.115 14.9002 17.115ZM13.5578 18.6587V30.7399H4.56401C2.88607 30.7399 1.54371 29.3976 1.54371 27.7196V18.6587H13.5578Z" fill="#76B82A"/>
            <path d="M27.6525 0H17.9204C17.4506 0 17.115 0.335589 17.115 0.805414V14.9002C17.115 14.9673 17.1821 15.0344 17.2492 15.0344H31.2769C31.7467 15.0344 32.1494 14.6317 32.1494 14.1619V4.56401C32.2165 2.08065 30.1359 0 27.6525 0ZM30.6728 4.56401V13.5578H18.6587V1.47659H27.6525C29.2633 1.54371 30.6728 2.88607 30.6728 4.56401Z" fill="#8682BD"/>
            <path d="M31.344 17.115H17.3164C17.2492 17.115 17.1821 17.1821 17.1821 17.2492V31.948C17.1821 32.0152 17.2492 32.0823 17.3164 32.0823H27.6525C30.1359 32.0823 32.2165 30.0687 32.2165 27.5854V17.9875C32.2165 17.5177 31.8138 17.115 31.344 17.115ZM30.6728 18.6587V27.5854C30.6728 29.2633 29.3305 30.6057 27.6525 30.6057H18.6587V18.6587H30.6728Z" fill="#EA5C0B"/>
            <path d="M20.1354 7.85278H12.0812C9.79922 7.85278 7.91992 9.73208 7.91992 12.0141V20.0682C7.91992 22.3502 9.79922 24.2295 12.0812 24.2295H20.1354C22.4174 24.2295 24.2967 22.3502 24.2967 20.0682V12.0812C24.3638 9.73208 22.4845 7.85278 20.1354 7.85278ZM22.8201 12.0812V20.1353C22.8201 21.6119 21.612 22.8201 20.1354 22.8201H12.0812C10.6046 22.8201 9.39651 21.6119 9.39651 20.1353V12.0812C9.39651 10.6046 10.6046 9.39649 12.0812 9.39649H20.1354C21.612 9.39649 22.8201 10.6046 22.8201 12.0812Z" fill="#3A7CFF"/>
        </g>
    </symbol>

    <symbol id="logout">
        <path d="M12.5859 6.99999L5 6.99999C4.73478 6.99999 4.48043 7.10535 4.29289 7.29288C4.10536 7.48042 4 7.73477 4 7.99999C4 8.26521 4.10536 8.51956 4.29289 8.7071C4.48043 8.89463 4.73478 8.99999 5 8.99999L12.5859 8.99999L11.293 10.293C11.1063 10.4807 11.0017 10.7347 11.0021 10.9994C11.0024 11.2641 11.1078 11.5179 11.2949 11.7051C11.4821 11.8922 11.7359 11.9976 12.0006 11.9979C12.2653 11.9983 12.5193 11.8937 12.707 11.707L15.707 8.70703C15.7999 8.61419 15.8736 8.50397 15.9239 8.38266C15.9741 8.26134 16 8.13131 16 7.99999C16 7.86867 15.9741 7.73864 15.9239 7.61733C15.8736 7.49601 15.7999 7.38579 15.707 7.29296L12.707 4.29296C12.6143 4.19968 12.504 4.12563 12.3826 4.07504C12.2612 4.02445 12.131 3.99831 11.9994 3.99813C11.8679 3.99794 11.7376 4.02372 11.616 4.07397C11.4945 4.12423 11.384 4.19797 11.291 4.29099C11.198 4.384 11.1242 4.49446 11.074 4.61602C11.0237 4.73759 10.998 4.86787 10.9981 4.99942C10.9983 5.13096 11.0245 5.26117 11.075 5.3826C11.1256 5.50402 11.1997 5.61427 11.293 5.70702L12.5859 6.99999Z" fill="#AFB5C1"/>
        <path d="M0.999999 16L9 16C9.13134 16.0001 9.26141 15.9743 9.38277 15.924C9.50413 15.8738 9.6144 15.8001 9.70727 15.7073C9.80015 15.6144 9.8738 15.5041 9.92403 15.3828C9.97426 15.2614 10.0001 15.1313 10 15L10 13C10 12.7348 9.89464 12.4804 9.70711 12.2929C9.51957 12.1054 9.26522 12 9 12C8.73478 12 8.48043 12.1054 8.29289 12.2929C8.10536 12.4804 8 12.7348 8 13L8 14L2 14L2 2L8 2L8 3C8 3.26522 8.10536 3.51957 8.29289 3.70711C8.48043 3.89464 8.73478 4 9 4C9.26522 4 9.51957 3.89464 9.70711 3.70711C9.89464 3.51957 10 3.26522 10 3L10 1C10.0001 0.868657 9.97426 0.738587 9.92403 0.617228C9.8738 0.495869 9.80015 0.3856 9.70727 0.292726C9.6144 0.199853 9.50413 0.126196 9.38277 0.0759677C9.26141 0.0257396 9.13134 -7.44625e-05 9 -8.74228e-08L1 -7.86805e-07C0.868658 -7.51849e-05 0.738588 0.0257389 0.617228 0.075967C0.495869 0.126195 0.385601 0.199852 0.292727 0.292726C0.199854 0.385599 0.126197 0.495868 0.0759682 0.617227C0.0257401 0.738587 -7.40174e-05 0.868656 3.57667e-07 0.999999L-8.66252e-07 15C-7.52643e-05 15.1313 0.0257388 15.2614 0.0759669 15.3828C0.126196 15.5041 0.199853 15.6144 0.292726 15.7073C0.385599 15.8001 0.495868 15.8738 0.617227 15.924C0.738586 15.9743 0.868656 16.0001 0.999999 16Z" fill="#AFB5C1"/>
    </symbol>

    <symbol id="arrow-left" fill="none">
        <path d="M8 1L1 8L8 15" stroke="black" stroke-width="2" stroke-linecap="round" stroke-linejoin="round"/>
    </symbol>

    <symbol id="burger" fill="none">
        <rect y="0.29895" width="30" height="27.1405" fill="#939CAE"/>
        <path fill-rule="evenodd" clip-rule="evenodd" d="M11.3616 8.90428C10.9993 9.72254 10.206 10.2903 9.28571 10.2903C8.02335 10.2903 7 9.22203 7 7.90429C7 6.58655 8.02335 5.51831 9.28571 5.51831C10.206 5.51831 10.9993 6.08604 11.3616 6.90428H23V8.90428H11.3616ZM7.76196 12.4716H17.1146C17.477 11.6533 18.2702 11.0856 19.1905 11.0856C20.1108 11.0856 20.904 11.6533 21.2664 12.4716H23.0001V14.4716H21.2664C20.904 15.2898 20.1108 15.8576 19.1905 15.8576C18.2702 15.8576 17.4769 15.2898 17.1146 14.4716H7.76196V12.4716ZM11.0194 18.0389H7.76196V20.0389H11.0194C11.3817 20.8571 12.175 21.4249 13.0953 21.4249C14.0156 21.4249 14.8088 20.8571 15.1712 20.0389H23.0001V18.0389H15.1712C14.8088 17.2206 14.0156 16.6529 13.0953 16.6529C12.175 16.6529 11.3818 17.2206 11.0194 18.0389Z" fill="white"/>
    </symbol>

    <symbol id="clear-indicator">
        <path fill-rule="evenodd" clip-rule="evenodd" d="M6 0C2.68594 0 0 2.68594 0 6C0 9.31406 2.68594 12 6 12C9.31406 12 12 9.31406 12 6C12 2.68594 9.31406 0 6 0ZM8.83919 8.14855C9.03333 8.34408 9.03333 8.66024 8.83781 8.85437C8.74074 8.95144 8.61316 8.99998 8.48559 8.99998C8.35801 8.99998 8.22905 8.95144 8.13199 8.85299L5.99234 6.70779L3.85268 8.85299C3.75562 8.95144 3.62666 8.99998 3.49908 8.99998C3.37151 8.99998 3.24393 8.95144 3.14686 8.85437C2.95134 8.66024 2.95134 8.34408 3.14548 8.14855L5.2879 6.00058L3.14548 3.85261C2.95134 3.65709 2.95134 3.34093 3.14686 3.14679C3.34239 2.95266 3.65855 2.95266 3.85268 3.14818L5.99234 5.29337L8.13199 3.14679C8.32612 2.95127 8.64228 2.95127 8.83781 3.1454C9.03333 3.33954 9.03333 3.6557 8.83919 3.85123L6.69677 6.00058L8.83919 8.14855Z" />
    </symbol>

    <symbol id="black-cruce">
        <path fill-rule="evenodd" clip-rule="evenodd" d="M9.04905 10.8518C9.34194 11.1447 9.81682 11.1447 10.1097 10.8518C10.4026 10.5589 10.4026 10.0841 10.1097 9.79118L6.22539 5.90686L10.1097 2.02254C10.4026 1.72965 10.4026 1.25478 10.1097 0.961883C9.81682 0.66899 9.34194 0.66899 9.04905 0.961883L5.16473 4.8462L1.28033 0.961797C0.987437 0.668903 0.512564 0.668903 0.219671 0.961796C-0.0732224 1.25469 -0.0732228 1.72956 0.219671 2.02246L4.10407 5.90686L0.21967 9.79126C-0.0732235 10.0842 -0.0732232 10.559 0.21967 10.8519C0.512563 11.1448 0.987437 11.1448 1.28033 10.8519L5.16473 6.96752L9.04905 10.8518Z" fill="black"/>
    </symbol>
</svg>
