<svg display="none" xmlns="http://www.w3.org/2000/svg" height="38">
    <symbol id="tricolor">
        <path d="M6.31847 15.89L11.4267 10.979L0 0H10.3634L21.72 10.9121L16.538 15.89H6.31847Z" fill="#1E3C96"/>
        <path d="M27.0606 26L16.5381 15.89L26.9015 15.8902L37.4231 26H27.0606Z" fill="#C8140A"/>
        <path d="M97.5936 8.2263C97.5936 7.46594 97.1594 7.10916 96.4191 7.10916H94.8763V9.31902H96.4564C97.1717 9.31902 97.5936 8.95722 97.5936 8.2263ZM92.7196 5.052H96.4068C98.2925 5.052 99.7496 6.28762 99.7496 8.22607C99.7496 10.188 98.2745 11.3757 96.3819 11.3757H94.876V13.7184H92.7196V5.052ZM91.1274 9.3697C91.1274 11.9724 89.3844 13.7922 86.7837 13.7922C84.183 13.7922 82.4103 11.9925 82.4103 9.38545C82.4103 6.7784 84.1447 4.9785 86.7837 4.9785C89.4227 4.9785 91.1274 6.76675 91.1274 9.3697ZM88.971 9.3697C88.971 8.00671 88.1905 7.03543 86.7837 7.03543C85.3769 7.03543 84.5668 8.01698 84.5668 9.38545C84.5668 10.7541 85.362 11.7355 86.7837 11.7355C88.2054 11.7352 88.971 10.7325 88.971 9.3697ZM47.2937 10.4868L50.5436 5.05177H52.7742V13.7184H50.6947V8.26967L47.4448 13.7189H45.2142V5.052H47.2935V10.4868H47.2937ZM41.5939 8.2263C41.5939 7.46594 41.1599 7.10916 40.4197 7.10916H38.8763V9.31902H40.4566C41.1723 9.31902 41.5939 8.95722 41.5939 8.2263ZM36.7201 5.052H40.4073C42.2933 5.052 43.7505 6.28762 43.7505 8.22607C43.7505 10.188 42.2755 11.3757 40.3829 11.3757H38.8768V13.7184H36.7203V5.052H36.7201ZM57.264 8.10623H57.5222L60.0311 5.05177H62.8064L59.3061 9.07843L63.0917 13.7184H60.2461L57.4779 10.0794H57.2638V13.7184H55.1078V5.052H57.264V8.10623ZM71.602 9.3697C71.602 6.76675 69.8975 4.97827 67.2583 4.97827C64.6191 4.97827 62.8849 6.7784 62.8849 9.38522C62.8849 11.9923 64.6576 13.7919 67.2583 13.7919C69.8592 13.7922 71.602 11.9724 71.602 9.3697ZM69.4453 9.3697C69.4453 10.7325 68.68 11.7352 67.2581 11.7352C65.8364 11.7352 65.0414 10.7539 65.0414 9.38522C65.0414 8.01675 65.8513 7.0352 67.2581 7.0352C68.6651 7.03543 69.4453 8.00671 69.4453 9.3697ZM35.2806 5.052V7.10916H32.7857V13.7189H30.6292V7.10893H28.1338V5.05177H35.2806V5.052ZM76.2918 7.10893C76.2459 7.70836 76.1959 8.31396 76.13 8.9175C76.0608 9.55026 75.9738 10.1764 75.8551 10.7834C75.5132 12.5353 74.5942 13.6474 72.8541 13.7353C72.6772 13.7442 72.5046 13.7404 72.3277 13.7326V11.6549C73.2919 11.6802 73.566 11.3161 73.7441 10.4092C73.8605 9.81505 73.9623 9.02798 74.0466 8.21283C74.1552 7.16211 74.2344 6.10683 74.2938 5.05223H80.7565V13.7191H78.6001V7.10893H76.2918Z" fill="#1E3C96"/>
    </symbol>

    <symbol id="iflex">
        <g>
            <path d="M48.929 11.6113C52.6204 11.6113 54.4997 13.4235 54.4997 16.9808V23.6925C54.4997 24.6322 54.2984 24.8335 53.5601 25.1691C52.4862 25.639 50.9425 25.8403 48.8618 25.8403C46.6469 25.8403 45.1704 25.5047 44.2978 24.7664C43.4924 24.0952 43.0226 23.0214 43.0226 21.6119C43.0226 18.5245 44.7005 17.4506 48.929 17.4506C49.1303 17.4506 49.9357 17.5177 51.4123 17.5848V16.8465C51.4123 15.1686 50.674 14.296 48.7947 14.296C47.5195 14.296 46.5798 14.6988 46.0429 15.5713C45.6402 16.1082 45.5059 16.1753 44.9019 15.974L43.9622 15.437C43.3582 15.1686 43.2239 14.7659 43.4924 14.296C44.4321 12.4839 46.2442 11.6113 48.929 11.6113ZM51.4794 20.0682C49.6672 20.0011 48.7276 19.9339 48.6605 19.9339C46.7812 19.9339 46.1771 20.4709 46.1771 21.6119C46.1771 22.7529 46.7141 23.357 48.5934 23.357C49.7344 23.357 50.5398 23.2898 51.211 23.1556C51.4123 23.0885 51.4794 22.9542 51.4794 22.82V20.0682Z" fill="#5E6065"/>
            <path d="M59.4664 11.947C60.0705 11.947 60.2718 12.1483 60.2718 12.7524V17.7191C60.2718 18.9273 60.0705 20.2025 59.7349 21.5448H59.802C60.1376 20.7394 60.6074 19.7998 61.2786 18.9273L65.9097 12.4168C66.1111 12.1483 66.3795 12.0141 66.7151 12.0141H68.1246C68.7287 12.0141 68.93 12.2155 68.93 12.8195V24.6994C68.93 25.3034 68.7287 25.5048 68.1246 25.5048H66.7151C66.1111 25.5048 65.9097 25.3034 65.9097 24.6994V19.7998C65.9097 18.5917 66.1111 17.3164 66.5138 15.9741H66.4467C66.1782 16.6452 65.6412 17.5178 64.9701 18.5917L60.406 25.1021C60.2047 25.3706 59.9362 25.5048 59.6006 25.5048H58.1912C57.5871 25.5048 57.3857 25.3034 57.3857 24.6994V12.7524C57.3857 12.1483 57.5871 11.947 58.1912 11.947H59.4664ZM63.225 10.2019C61.2786 10.2019 59.7349 9.19516 59.1979 7.51722C59.0637 7.18163 59.1979 6.91316 59.5335 6.77892L60.5403 6.37621C60.943 6.24198 61.2115 6.37621 61.3457 6.64469C61.6142 7.58434 62.2853 7.98704 63.1579 7.98704C64.0975 7.98704 64.7016 7.51722 64.9701 6.64469C65.1043 6.37621 65.3056 6.24198 65.6412 6.3091L66.8494 6.77892C67.2521 6.98028 67.3192 7.11451 67.1849 7.51722C66.648 9.26228 65.1714 10.2019 63.225 10.2019Z" fill="#5E6065"/>
            <path d="M81.9509 6.30908C82.6221 6.30908 82.8905 6.51044 82.8905 7.18161V8.52397H84.2329C88.7969 8.52397 91.2803 10.9402 91.2803 15.1686V17.1822C91.2803 21.3435 88.7969 23.8268 84.2329 23.8268H82.8905V25.1692C82.8905 25.8404 82.6221 26.0417 81.9509 26.0417H80.4743C79.8031 26.0417 79.6018 25.8404 79.6018 25.1692V23.8268H78.2594C73.6954 23.8268 71.212 21.4106 71.212 17.1822V15.1686C71.212 11.0073 73.6954 8.52397 78.2594 8.52397H79.6018V7.18161C79.6018 6.51044 79.8031 6.30908 80.4743 6.30908H81.9509ZM78.2594 11.4772C75.776 11.4772 74.5008 12.6182 74.5008 15.0344V17.3164C74.5008 19.6655 75.776 20.8737 78.2594 20.8737H79.6018V11.4772H78.2594ZM87.9915 15.0344C87.9915 12.6853 86.7163 11.4772 84.2329 11.4772H82.8905V20.8065H84.2329C86.7163 20.8065 87.9915 19.6655 87.9915 17.2493V15.0344Z" fill="#5E6065"/>
            <path d="M103.898 11.947C104.502 11.947 104.704 12.1484 104.704 12.7524V24.6323C104.704 25.2364 104.502 25.4377 103.898 25.4377H102.489C101.885 25.4377 101.684 25.2364 101.684 24.6323V14.766H97.7236V16.8466C97.7236 20.0012 97.3209 22.2161 96.4483 23.4913C95.6429 24.7665 94.9718 25.3035 93.8307 25.8404C93.3609 26.0418 93.0925 25.9075 92.824 25.4377L92.1528 24.0954C91.9514 23.6926 92.0186 23.4242 92.4884 23.1557C93.1596 22.8201 93.428 22.6188 93.965 21.7462C94.5019 20.9408 94.7704 19.1957 94.7704 16.7795V12.7524C94.7704 12.1484 94.9718 11.947 95.5758 11.947H103.898Z" fill="#5E6065"/>
            <path d="M106.919 17.1822C106.919 13.5578 108.999 11.5443 112.959 11.5443C116.919 11.5443 119 13.7592 119 16.9137V18.5246C119 19.2629 118.597 19.6656 117.859 19.6656H110.006V20.6052C110.006 22.2832 111.08 23.2228 112.959 23.2228C114.436 23.2228 115.443 22.753 116.047 21.8133C116.449 21.2093 116.718 21.1422 117.389 21.4778L118.329 21.9476C118.933 22.2161 119 22.6188 118.664 23.2228C117.658 24.9008 115.778 25.7062 113.026 25.7062C108.999 25.7062 107.053 23.5584 107.053 20.1354V17.1822H106.919ZM115.98 16.7795C115.98 15.1016 114.973 14.0948 112.959 14.0948C111.013 14.0948 109.939 15.0344 109.939 16.7795V17.3836H115.98V16.7795Z" fill="#5E6065"/>
            <path d="M132.961 24.4981C133.296 25.1692 133.162 25.4377 132.424 25.4377H131.148C130.209 25.4377 130.074 25.3035 129.739 24.6994L128.128 21.2093C127.725 20.2696 127.121 19.934 126.047 19.934H124.437V24.5652C124.437 25.1692 124.235 25.3706 123.564 25.3706H122.222C121.55 25.3706 121.416 25.1692 121.416 24.5652V12.7524C121.416 12.1484 121.618 11.947 122.222 11.947H123.564C124.235 11.947 124.437 12.1484 124.437 12.7524V17.1822H125.645H125.846L129.336 12.5511C129.739 12.0141 129.94 11.947 130.88 11.947H132.155C132.961 11.947 133.162 12.2826 132.692 12.8867L128.799 17.7863C129.47 18.1219 130.142 18.8602 130.679 19.934L132.961 24.4981Z" fill="#5E6065"/>
            <path d="M134.37 16.9136C134.37 13.4906 136.383 11.6113 140.343 11.6113C143.297 11.6113 145.243 12.9537 145.914 15.0343C146.115 15.7055 145.981 15.974 145.31 16.1753L144.169 16.5109C143.565 16.7123 143.229 16.578 143.028 15.974C142.558 14.833 141.619 14.2289 140.209 14.2289C138.33 14.2289 137.39 15.1015 137.39 16.7794V20.6051C137.39 22.2159 138.397 23.1556 140.209 23.1556C141.619 23.1556 142.625 22.5515 143.028 21.3434C143.229 20.7394 143.565 20.6051 144.169 20.8065L145.31 21.1421C145.914 21.3434 146.115 21.7461 145.847 22.2831C144.907 24.6322 143.028 25.7732 140.075 25.7732C136.249 25.7732 134.303 23.8268 134.303 20.4709V16.9136H134.37Z" fill="#5E6065"/>
            <path d="M14.2961 0H4.56401C2.08065 0 0 2.01354 0 4.56401V14.2961C0 14.7659 0.335589 15.1015 0.805414 15.1015H14.9002C14.9673 15.1015 15.0344 15.0344 15.0344 14.9673V0.872532C15.1015 0.402707 14.7659 0 14.2961 0ZM13.5578 1.54371V13.6249H1.54371V4.56401C1.54371 2.88607 2.88607 1.54371 4.56401 1.54371H13.5578Z" fill="#F7A823"/>
            <path d="M14.9002 17.115H0.805414C0.335589 17.115 0 17.4506 0 17.9204V27.6525C0 30.1359 2.01354 32.1494 4.56401 32.1494H14.9002C14.9673 32.1494 15.0344 32.0823 15.0344 32.0152V17.3163C15.1015 17.1821 15.0344 17.115 14.9002 17.115ZM13.5578 18.6587V30.7399H4.56401C2.88607 30.7399 1.54371 29.3976 1.54371 27.7196V18.6587H13.5578Z" fill="#76B82A"/>
            <path d="M27.6525 0H17.9204C17.4506 0 17.115 0.335589 17.115 0.805414V14.9002C17.115 14.9673 17.1821 15.0344 17.2492 15.0344H31.2769C31.7467 15.0344 32.1494 14.6317 32.1494 14.1619V4.56401C32.2165 2.08065 30.1359 0 27.6525 0ZM30.6728 4.56401V13.5578H18.6587V1.47659H27.6525C29.2633 1.54371 30.6728 2.88607 30.6728 4.56401Z" fill="#8682BD"/>
            <path d="M31.344 17.115H17.3164C17.2492 17.115 17.1821 17.1821 17.1821 17.2492V31.948C17.1821 32.0152 17.2492 32.0823 17.3164 32.0823H27.6525C30.1359 32.0823 32.2165 30.0687 32.2165 27.5854V17.9875C32.2165 17.5177 31.8138 17.115 31.344 17.115ZM30.6728 18.6587V27.5854C30.6728 29.2633 29.3305 30.6057 27.6525 30.6057H18.6587V18.6587H30.6728Z" fill="#EA5C0B"/>
            <path d="M20.1354 7.85278H12.0812C9.79922 7.85278 7.91992 9.73208 7.91992 12.0141V20.0682C7.91992 22.3502 9.79922 24.2295 12.0812 24.2295H20.1354C22.4174 24.2295 24.2967 22.3502 24.2967 20.0682V12.0812C24.3638 9.73208 22.4845 7.85278 20.1354 7.85278ZM22.8201 12.0812V20.1353C22.8201 21.6119 21.612 22.8201 20.1354 22.8201H12.0812C10.6046 22.8201 9.39651 21.6119 9.39651 20.1353V12.0812C9.39651 10.6046 10.6046 9.39649 12.0812 9.39649H20.1354C21.612 9.39649 22.8201 10.6046 22.8201 12.0812Z" fill="#3A7CFF"/>
        </g>
    </symbol>

    <symbol id="logout">
        <path d="M12.5859 6.99999L5 6.99999C4.73478 6.99999 4.48043 7.10535 4.29289 7.29288C4.10536 7.48042 4 7.73477 4 7.99999C4 8.26521 4.10536 8.51956 4.29289 8.7071C4.48043 8.89463 4.73478 8.99999 5 8.99999L12.5859 8.99999L11.293 10.293C11.1063 10.4807 11.0017 10.7347 11.0021 10.9994C11.0024 11.2641 11.1078 11.5179 11.2949 11.7051C11.4821 11.8922 11.7359 11.9976 12.0006 11.9979C12.2653 11.9983 12.5193 11.8937 12.707 11.707L15.707 8.70703C15.7999 8.61419 15.8736 8.50397 15.9239 8.38266C15.9741 8.26134 16 8.13131 16 7.99999C16 7.86867 15.9741 7.73864 15.9239 7.61733C15.8736 7.49601 15.7999 7.38579 15.707 7.29296L12.707 4.29296C12.6143 4.19968 12.504 4.12563 12.3826 4.07504C12.2612 4.02445 12.131 3.99831 11.9994 3.99813C11.8679 3.99794 11.7376 4.02372 11.616 4.07397C11.4945 4.12423 11.384 4.19797 11.291 4.29099C11.198 4.384 11.1242 4.49446 11.074 4.61602C11.0237 4.73759 10.998 4.86787 10.9981 4.99942C10.9983 5.13096 11.0245 5.26117 11.075 5.3826C11.1256 5.50402 11.1997 5.61427 11.293 5.70702L12.5859 6.99999Z" fill="#AFB5C1"/>
        <path d="M0.999999 16L9 16C9.13134 16.0001 9.26141 15.9743 9.38277 15.924C9.50413 15.8738 9.6144 15.8001 9.70727 15.7073C9.80015 15.6144 9.8738 15.5041 9.92403 15.3828C9.97426 15.2614 10.0001 15.1313 10 15L10 13C10 12.7348 9.89464 12.4804 9.70711 12.2929C9.51957 12.1054 9.26522 12 9 12C8.73478 12 8.48043 12.1054 8.29289 12.2929C8.10536 12.4804 8 12.7348 8 13L8 14L2 14L2 2L8 2L8 3C8 3.26522 8.10536 3.51957 8.29289 3.70711C8.48043 3.89464 8.73478 4 9 4C9.26522 4 9.51957 3.89464 9.70711 3.70711C9.89464 3.51957 10 3.26522 10 3L10 1C10.0001 0.868657 9.97426 0.738587 9.92403 0.617228C9.8738 0.495869 9.80015 0.3856 9.70727 0.292726C9.6144 0.199853 9.50413 0.126196 9.38277 0.0759677C9.26141 0.0257396 9.13134 -7.44625e-05 9 -8.74228e-08L1 -7.86805e-07C0.868658 -7.51849e-05 0.738588 0.0257389 0.617228 0.075967C0.495869 0.126195 0.385601 0.199852 0.292727 0.292726C0.199854 0.385599 0.126197 0.495868 0.0759682 0.617227C0.0257401 0.738587 -7.40174e-05 0.868656 3.57667e-07 0.999999L-8.66252e-07 15C-7.52643e-05 15.1313 0.0257388 15.2614 0.0759669 15.3828C0.126196 15.5041 0.199853 15.6144 0.292726 15.7073C0.385599 15.8001 0.495868 15.8738 0.617227 15.924C0.738586 15.9743 0.868656 16.0001 0.999999 16Z" fill="#AFB5C1"/>
    </symbol>

    <symbol id="arrow-left" fill="none">
        <path d="M8 1L1 8L8 15" stroke="black" stroke-width="2" stroke-linecap="round" stroke-linejoin="round"/>
    </symbol>

    <symbol id="burger" fill="none">
        <rect y="0.29895" width="30" height="27.1405" fill="#939CAE"/>
        <path d="M11.3616 8.90428C10.9993 9.72254 10.206 10.2903 9.28571 10.2903C8.02335 10.2903 7 9.22203 7 7.90429C7 6.58655 8.02335 5.51831 9.28571 5.51831C10.206 5.51831 10.9993 6.08604 11.3616 6.90428H23V8.90428H11.3616ZM7.76196 12.4716H17.1146C17.477 11.6533 18.2702 11.0856 19.1905 11.0856C20.1108 11.0856 20.904 11.6533 21.2664 12.4716H23.0001V14.4716H21.2664C20.904 15.2898 20.1108 15.8576 19.1905 15.8576C18.2702 15.8576 17.4769 15.2898 17.1146 14.4716H7.76196V12.4716ZM11.0194 18.0389H7.76196V20.0389H11.0194C11.3817 20.8571 12.175 21.4249 13.0953 21.4249C14.0156 21.4249 14.8088 20.8571 15.1712 20.0389H23.0001V18.0389H15.1712C14.8088 17.2206 14.0156 16.6529 13.0953 16.6529C12.175 16.6529 11.3818 17.2206 11.0194 18.0389Z" fill="white"/>
    </symbol>

    <symbol id="clear-indicator">
        <path d="M6 0C2.68594 0 0 2.68594 0 6C0 9.31406 2.68594 12 6 12C9.31406 12 12 9.31406 12 6C12 2.68594 9.31406 0 6 0ZM8.83919 8.14855C9.03333 8.34408 9.03333 8.66024 8.83781 8.85437C8.74074 8.95144 8.61316 8.99998 8.48559 8.99998C8.35801 8.99998 8.22905 8.95144 8.13199 8.85299L5.99234 6.70779L3.85268 8.85299C3.75562 8.95144 3.62666 8.99998 3.49908 8.99998C3.37151 8.99998 3.24393 8.95144 3.14686 8.85437C2.95134 8.66024 2.95134 8.34408 3.14548 8.14855L5.2879 6.00058L3.14548 3.85261C2.95134 3.65709 2.95134 3.34093 3.14686 3.14679C3.34239 2.95266 3.65855 2.95266 3.85268 3.14818L5.99234 5.29337L8.13199 3.14679C8.32612 2.95127 8.64228 2.95127 8.83781 3.1454C9.03333 3.33954 9.03333 3.6557 8.83919 3.85123L6.69677 6.00058L8.83919 8.14855Z" />
    </symbol>

    <symbol id="black-cruce">
        <path d="M9.04905 10.8518C9.34194 11.1447 9.81682 11.1447 10.1097 10.8518C10.4026 10.5589 10.4026 10.0841 10.1097 9.79118L6.22539 5.90686L10.1097 2.02254C10.4026 1.72965 10.4026 1.25478 10.1097 0.961883C9.81682 0.66899 9.34194 0.66899 9.04905 0.961883L5.16473 4.8462L1.28033 0.961797C0.987437 0.668903 0.512564 0.668903 0.219671 0.961796C-0.0732224 1.25469 -0.0732228 1.72956 0.219671 2.02246L4.10407 5.90686L0.21967 9.79126C-0.0732235 10.0842 -0.0732232 10.559 0.21967 10.8519C0.512563 11.1448 0.987437 11.1448 1.28033 10.8519L5.16473 6.96752L9.04905 10.8518Z" fill="black"/>
    </symbol>

    <symbol id="update">
        <path fill-rule="evenodd" clip-rule="evenodd" d="M18.7193 13.3807C18.7193 13.1352 18.5046 12.9204 18.2591 12.9204H17.1852C16.9398 12.9204 16.7557 13.1045 16.7557 13.35C16.7557 13.4113 16.7557 13.5034 16.725 13.5648C16.633 13.9636 16.4796 14.3318 16.2648 14.7C15.4057 16.2034 13.9023 17.0318 12.3068 17.0318C11.0795 17.0318 9.91364 16.5409 9.05455 15.6818C8.90114 15.5591 8.77841 15.4057 8.68637 15.2523C8.59432 15.0068 8.80909 14.8841 9.08523 14.8841H11.233C11.4784 14.8841 11.6932 14.6693 11.6932 14.4238V13.4727C11.6932 13.2273 11.5091 13.0432 11.2636 13.0432H5.64886C5.43409 13.0432 5.25 13.2273 5.25 13.442V19.0261C5.28068 19.2716 5.49545 19.4863 5.74091 19.4863H6.66136C6.90682 19.4863 7.12159 19.2716 7.12159 19.0261V16.8784C7.12159 16.6023 7.275 16.4795 7.48977 16.6636C7.58182 16.7863 7.67387 16.8784 7.79659 16.9704C9.33068 18.5045 11.4784 19.1488 13.6875 18.7193C14.4546 18.5659 15.1909 18.2591 15.8352 17.8295C17.4307 16.7863 18.4432 15.1909 18.7193 13.442V13.3807ZM5.28032 11.3557C5.28032 11.6011 5.4951 11.8159 5.74055 11.8159H6.81441C7.05987 11.8159 7.24396 11.6318 7.24396 11.3864C7.24396 11.325 7.24396 11.233 7.27464 11.1716C7.36669 10.7727 7.5201 10.4045 7.73487 10.0364C8.59396 8.53296 10.0974 7.70455 11.6928 7.70455C12.9201 7.70455 14.086 8.19546 14.9451 9.05455C15.0985 9.17727 15.2212 9.33068 15.3133 9.48409C15.4053 9.72955 15.1906 9.85227 14.9144 9.85227H12.7667C12.5212 9.85227 12.3065 10.067 12.3065 10.3125V11.2636C12.3065 11.5091 12.4906 11.6932 12.736 11.6932H18.3508C18.5656 11.6932 18.7497 11.5091 18.7497 11.2943V5.71023C18.719 5.46477 18.5042 5.25 18.2587 5.25H17.3383C17.0928 5.25 16.8781 5.46477 16.8781 5.71023V7.85796C16.8781 8.13409 16.7246 8.25682 16.5099 8.07273C16.4178 7.95 16.3258 7.85796 16.2031 7.76591C14.669 6.23182 12.5212 5.5875 10.3121 6.01705C9.5451 6.17046 8.80873 6.47727 8.16442 6.90682C6.56896 7.95 5.55646 9.54546 5.28032 11.2943V11.3557Z" fill="white"/>
    </symbol>

    <symbol id="checkbox">
        <path d="M0.0939457 3.51775C-0.0313152 3.39248 -0.0313152 3.18372 0.0939457 3.05846L0.553236 2.59916C0.678497 2.4739 0.887265 2.4739 1.01253 2.59916L3.60125 5.20877C3.68476 5.29228 3.8309 5.29228 3.91441 5.20877L8.98747 0.0939457C9.11273 -0.0313152 9.3215 -0.0313152 9.44676 0.0939457L9.90605 0.553236C10.0313 0.678497 10.0313 0.887265 9.90605 1.01253L3.99791 6.9833C3.87265 7.12944 3.66388 7.12944 3.53862 6.9833L0.0939457 3.51775Z"/>
    </symbol>

    <symbol id="plus">
        <path d="M4.99951 1V9" stroke="black" stroke-linecap="round"/>
        <path d="M8.99988 5L0.999878 5" stroke="black" stroke-linecap="round"/>
    </symbol>

    <symbol id="minus">
        <path d="M8.99988 1L0.999878 1" stroke="black" stroke-linecap="round"/>
    </symbol>

    <symbol id="blue-circle">
        <path d="M8 4C8 1.79086 6.20914 -2.7141e-07 4 -1.74846e-07C1.79086 -7.8281e-08 -2.7141e-07 1.79086 -1.74846e-07 4C-7.8281e-08 6.20914 1.79086 8 4 8C6.20914 8 8 6.20914 8 4Z" fill="#3A7CFF"/>
    </symbol>

    <symbol id="alert">
        <path fill-rule="evenodd" clip-rule="evenodd" d="M7.99483 0.364947C8.34602 0.167226 8.74223 0.0633545 9.14526 0.0633545C9.54828 0.0633545 9.94449 0.167226 10.2957 0.364947C10.6469 0.562668 10.9412 0.847564 11.1502 1.19215L11.1523 1.19571L11.1523 1.19571L17.9069 12.472L17.9131 12.4823L17.913 12.4824C18.1178 12.8369 18.2261 13.239 18.2273 13.6484C18.2284 14.0579 18.1223 14.4605 17.9196 14.8162C17.7168 15.1719 17.4244 15.4684 17.0715 15.676C16.7186 15.8836 16.3175 15.9953 15.9081 15.9998L15.8999 15.9999V15.9998H2.39065H2.38241L2.38241 15.9998C1.97298 15.9953 1.57186 15.8836 1.21897 15.676C0.866077 15.4684 0.573705 15.1719 0.370943 14.8162C0.16818 14.4605 0.0620952 14.0579 0.0632416 13.6484C0.0643881 13.239 0.172726 12.8369 0.377478 12.4824L0.383487 12.4719L0.38357 12.472L7.13817 1.19571L7.78157 1.58112L7.14032 1.19215C7.34934 0.847564 7.64364 0.562668 7.99483 0.364947ZM8.42373 1.96859L8.42282 1.97009L1.67395 13.2368C1.6018 13.3635 1.56364 13.5068 1.56324 13.6526C1.56282 13.8001 1.60105 13.9452 1.67411 14.0734C1.74717 14.2016 1.85252 14.3084 1.97968 14.3832C2.10585 14.4574 2.24912 14.4976 2.39545 14.4998H15.8951C16.0414 14.4976 16.1847 14.4574 16.3108 14.3832C16.438 14.3084 16.5433 14.2016 16.6164 14.0734C16.6895 13.9452 16.7277 13.8001 16.7273 13.6526C16.7269 13.5068 16.6887 13.3635 16.6166 13.2368L9.86769 1.97009L9.86678 1.96859C9.79152 1.8451 9.68582 1.74298 9.55978 1.67203C9.43324 1.60078 9.29047 1.56335 9.14526 1.56335C9.00004 1.56335 8.85727 1.60078 8.73073 1.67203C8.60469 1.74298 8.49899 1.8451 8.42373 1.96859ZM9.14524 4.93012C9.55945 4.93012 9.89524 5.26591 9.89524 5.68012V8.87002C9.89524 9.28423 9.55945 9.62002 9.14524 9.62002C8.73102 9.62002 8.39524 9.28423 8.39524 8.87002V5.68012C8.39524 5.26591 8.73102 4.93012 9.14524 4.93012ZM9.14524 11.3099C8.73102 11.3099 8.39524 11.6457 8.39524 12.0599C8.39524 12.4741 8.73102 12.8099 9.14524 12.8099H9.15419C9.5684 12.8099 9.90419 12.4741 9.90419 12.0599C9.90419 11.6457 9.5684 11.3099 9.15419 11.3099H9.14524Z" fill="#C8140A"/>
    </symbol>

    <symbol id="menu">
        <path d="M3 7.5H7.5V3H3V7.5ZM9.75 21H14.25V16.5H9.75V21ZM3 21H7.5V16.5H3V21ZM3 14.25H7.5V9.75H3V14.25ZM9.75 14.25H14.25V9.75H9.75V14.25ZM16.5 3V7.5H21V3H16.5ZM9.75 7.5H14.25V3H9.75V7.5ZM16.5 14.25H21V9.75H16.5V14.25ZM16.5 21H21V16.5H16.5V21Z" />
    </symbol>

    <symbol id="success">
        <path fill-rule="evenodd" clip-rule="evenodd" d="M7.45694 0C3.51405 0 0.317871 3.13392 0.317871 7C0.317871 10.8661 3.51405 14 7.45694 14C11.3998 14 14.596 10.8661 14.596 7C14.596 3.13392 11.3998 0 7.45694 0ZM11.7725 5.14428L5.9747 10.6772C5.80023 10.8483 5.5169 10.8483 5.34244 10.6772L3.12744 8.60117C2.95298 8.43011 2.95298 8.1523 3.12744 7.98123C3.30191 7.81017 3.58524 7.81017 3.7597 7.98123L5.65927 9.748L11.1402 4.52434C11.3147 4.35327 11.598 4.35327 11.7725 4.52434C11.947 4.69541 11.947 4.97322 11.7725 5.14428Z" fill="#52C41A"/>
    </symbol>
</svg>
